<svg width="31" height="31" viewBox="0 0 31 31" fill="none" xmlns="http://www.w3.org/2000/svg">
<circle cx="15.5" cy="15.5" r="15.5" fill="black"/>
<g clip-path="url(#clip0_542_1090)">
<path d="M23.2516 19.8068C22.9643 20.4706 22.6242 21.0816 22.2301 21.6434C21.693 22.4092 21.2532 22.9393 20.9142 23.2337C20.3888 23.7169 19.8259 23.9644 19.2231 23.9784C18.7903 23.9784 18.2684 23.8553 17.6609 23.6055C17.0514 23.3568 16.4913 23.2337 15.9791 23.2337C15.442 23.2337 14.8659 23.3568 14.2497 23.6055C13.6326 23.8553 13.1354 23.9855 12.7553 23.9984C12.1772 24.023 11.601 23.7685 11.0259 23.2337C10.6588 22.9135 10.1996 22.3647 9.6496 21.5871C9.05945 20.7567 8.57426 19.7939 8.19415 18.6961C7.78708 17.5104 7.58301 16.3622 7.58301 15.2507C7.58301 13.9773 7.85815 12.8791 8.40925 11.9588C8.84236 11.2196 9.41856 10.6365 10.1397 10.2084C10.8609 9.78035 11.6401 9.56221 12.4792 9.54825C12.9384 9.54825 13.5405 9.69028 14.2887 9.96941C15.0349 10.2495 15.514 10.3915 15.724 10.3915C15.8811 10.3915 16.4133 10.2254 17.3155 9.89435C18.1687 9.58731 18.8888 9.46018 19.4787 9.51026C21.0773 9.63926 22.2782 10.2694 23.0769 11.4047C21.6473 12.2709 20.94 13.4842 20.9541 15.0406C20.967 16.2529 21.4068 17.2618 22.2712 18.0628C22.6629 18.4346 23.1004 18.7219 23.5871 18.926C23.4815 19.2321 23.3701 19.5253 23.2516 19.8068V19.8068ZM19.5855 5.38011C19.5855 6.33033 19.2383 7.21754 18.5464 8.03874C17.7113 9.01498 16.7013 9.5791 15.606 9.49008C15.5921 9.37609 15.584 9.25611 15.584 9.13003C15.584 8.21782 15.9811 7.24158 16.6863 6.44337C17.0384 6.03922 17.4861 5.70318 18.0292 5.43511C18.571 5.17104 19.0835 5.02501 19.5655 5C19.5796 5.12703 19.5855 5.25407 19.5855 5.3801V5.38011Z" fill="white"/>
</g>
<defs>
<clipPath id="clip0_542_1090">
<rect width="19" height="19" fill="white" transform="translate(6 5)"/>
</clipPath>
</defs>
</svg>
