<svg width="31" height="31" viewBox="0 0 31 31" fill="none" xmlns="http://www.w3.org/2000/svg">
<circle cx="15.5" cy="15.5" r="15" fill="white" stroke="#CCCCCC"/>
<g clip-path="url(#clip0_39_88)">
<path d="M25.6322 15.7384C25.6322 15.0359 25.5753 14.3297 25.4538 13.6387H15.707V17.6178H21.2885C21.0569 18.9012 20.3127 20.0365 19.223 20.7579V23.3398H22.5529C24.5083 21.5401 25.6322 18.8822 25.6322 15.7384Z" fill="#4285F4"/>
<path d="M15.7068 25.8342C18.4937 25.8342 20.844 24.9191 22.5564 23.3396L19.2265 20.7577C18.3001 21.388 17.1041 21.7449 15.7106 21.7449C13.0148 21.7449 10.729 19.9262 9.90887 17.481H6.47266V20.1426C8.22684 23.632 11.7997 25.8342 15.7068 25.8342Z" fill="#34A853"/>
<path d="M9.90565 17.4813C9.47281 16.198 9.47281 14.8083 9.90565 13.5249V10.8633H6.47323C5.00762 13.7831 5.00762 17.2231 6.47323 20.143L9.90565 17.4813Z" fill="#FBBC04"/>
<path d="M15.7068 9.25698C17.18 9.2342 18.6038 9.78855 19.6708 10.8061L22.621 7.85591C20.7529 6.10173 18.2735 5.13731 15.7068 5.16769C11.7997 5.16769 8.22684 7.36991 6.47266 10.8631L9.90508 13.5247C10.7214 11.0757 13.011 9.25698 15.7068 9.25698Z" fill="#EA4335"/>
</g>
<defs>
<clipPath id="clip0_39_88">
<rect width="20.6667" height="20.6667" fill="white" transform="translate(5.16699 5.16699)"/>
</clipPath>
</defs>
</svg>
