<svg width="31" height="33" viewBox="0 0 31 33" fill="none" xmlns="http://www.w3.org/2000/svg">
<path d="M0 16.0167C0 7.17093 6.93961 0 15.5 0C24.0604 0 31 7.17093 31 16.0167C31 24.8624 24.0604 32.0333 15.5 32.0333C6.93961 32.0333 0 24.8624 0 16.0167Z" fill="#FFE812"/>
<path d="M15.5003 7.34082C9.79335 7.34082 5.16699 11.1102 5.16699 15.7598C5.16699 18.7659 7.10113 21.4037 10.0105 22.8931C9.85226 23.4572 8.99343 26.5219 8.9592 26.7627C8.9592 26.7627 8.93866 26.9436 9.052 27.0126C9.16541 27.0816 9.29871 27.028 9.29871 27.028C9.62382 26.9811 13.0687 24.4806 13.665 24.0464C14.2606 24.1336 14.874 24.1789 15.5003 24.1789C21.2073 24.1789 25.8337 20.4096 25.8337 15.7598C25.8337 11.1102 21.2073 7.34082 15.5003 7.34082Z" fill="#381F1F"/>
<path fill-rule="evenodd" clip-rule="evenodd" d="M9.78714 18.699C9.45835 18.699 9.19097 18.4352 9.19097 18.1107V14.451H8.26078C7.93818 14.451 7.67578 14.1803 7.67578 13.8478C7.67578 13.5152 7.93825 13.2446 8.26078 13.2446H11.3135C11.6361 13.2446 11.8985 13.5152 11.8985 13.8478C11.8985 14.1803 11.636 14.451 11.3135 14.451H10.3833V18.1107C10.3833 18.4352 10.1159 18.699 9.78714 18.699ZM15.0146 18.691C14.766 18.691 14.5759 18.5867 14.5185 18.4189L14.2233 17.6204L12.4054 17.6202L12.1101 18.4193C12.0529 18.5868 11.8628 18.691 11.6143 18.691C11.4835 18.6912 11.3542 18.6621 11.2353 18.606C11.0709 18.5277 10.913 18.3122 11.094 17.7312L12.52 13.8527C12.6205 13.5578 12.9256 13.2538 13.3139 13.2447C13.7033 13.2538 14.0084 13.5578 14.1091 13.8533L15.5345 17.7301C15.7159 18.3124 15.5579 18.528 15.3936 18.6061C15.2746 18.6621 15.1454 18.6911 15.0146 18.691ZM13.3144 14.7812L13.9098 16.5292H12.7189L13.3144 14.7812ZM16.4939 18.6092C16.1788 18.6092 15.9226 18.3558 15.9226 18.0445V13.8607C15.9226 13.5209 16.1955 13.2446 16.5311 13.2446C16.8666 13.2446 17.1397 13.5209 17.1397 13.8607V17.4798H18.4065C18.7216 17.4798 18.9779 17.7332 18.9779 18.0445C18.9779 18.3558 18.7216 18.6092 18.4065 18.6092H16.4939ZM19.2097 18.075C19.2097 18.4147 19.4771 18.691 19.8059 18.691C19.964 18.6908 20.1156 18.6258 20.2274 18.5102C20.3392 18.3947 20.4021 18.2381 20.4023 18.0747V16.7306L20.6091 16.5168L22.0072 18.431C22.0626 18.5074 22.1344 18.5694 22.2172 18.6119C22.2998 18.6545 22.391 18.6763 22.4834 18.6759C22.6129 18.6762 22.7389 18.6326 22.842 18.5516C22.9047 18.503 22.9574 18.4422 22.9971 18.3724C23.0367 18.3027 23.0627 18.2255 23.0733 18.1453C23.0845 18.0652 23.0801 17.9836 23.0604 17.9053C23.0407 17.8269 23.0063 17.7534 22.9588 17.6889L21.4914 15.6801L22.85 14.2764C22.9433 14.1799 22.9902 14.0467 22.9815 13.9014C22.9729 13.7574 22.9107 13.6187 22.8062 13.5108C22.6942 13.3953 22.5448 13.3289 22.396 13.3289C22.2684 13.3289 22.1508 13.3776 22.0653 13.466L20.4021 15.1847V13.8607C20.4021 13.5209 20.1347 13.2446 19.8059 13.2446C19.4771 13.2446 19.2097 13.5209 19.2097 13.8607V18.075Z" fill="#FFE812"/>
</svg>
