<svg width="26" height="26" viewBox="0 0 26 26" fill="none" xmlns="http://www.w3.org/2000/svg">
<circle cx="13" cy="13" r="12" fill="white" stroke="black"/>
<mask id="mask0_516_1227" style="mask-type:alpha" maskUnits="userSpaceOnUse" x="4" y="5" width="18" height="19">
<path d="M4.2002 5.80005H21.8002V23.4H4.2002V5.80005Z" fill="#D9D9D9"/>
</mask>
<g mask="url(#mask0_516_1227)">
<path d="M12.9998 21.2002L11.9365 20.2469C10.7021 19.1346 9.6815 18.1752 8.87484 17.3685C8.06817 16.5619 7.4265 15.8377 6.94984 15.196C6.47317 14.5544 6.14012 13.9646 5.95067 13.4269C5.76123 12.8891 5.6665 12.3391 5.6665 11.7769C5.6665 10.628 6.0515 9.66853 6.8215 8.89853C7.5915 8.12853 8.55095 7.74353 9.69984 7.74353C10.3354 7.74353 10.9404 7.87797 11.5148 8.14686C12.0893 8.41575 12.5843 8.79464 12.9998 9.28353C13.4154 8.79464 13.9104 8.41575 14.4848 8.14686C15.0593 7.87797 15.6643 7.74353 16.2998 7.74353C17.4487 7.74353 18.4082 8.12853 19.1782 8.89853C19.9482 9.66853 20.3332 10.628 20.3332 11.7769C20.3332 12.3391 20.2384 12.8891 20.049 13.4269C19.8596 13.9646 19.5265 14.5544 19.0498 15.196C18.5732 15.8377 17.9315 16.5619 17.1248 17.3685C16.3182 18.1752 15.2976 19.1346 14.0632 20.2469L12.9998 21.2002ZM12.9998 19.2202C14.1732 18.1691 15.1387 17.2677 15.8965 16.516C16.6543 15.7644 17.2532 15.1105 17.6932 14.5544C18.1332 13.9983 18.4387 13.5033 18.6098 13.0694C18.7809 12.6355 18.8665 12.2046 18.8665 11.7769C18.8665 11.0435 18.6221 10.4324 18.1332 9.94353C17.6443 9.45464 17.0332 9.2102 16.2998 9.2102C15.7254 9.2102 15.1937 9.37214 14.7048 9.69603C14.2159 10.0199 13.8798 10.4324 13.6965 10.9335H12.3032C12.1198 10.4324 11.7837 10.0199 11.2948 9.69603C10.8059 9.37214 10.2743 9.2102 9.69984 9.2102C8.9665 9.2102 8.35539 9.45464 7.8665 9.94353C7.37762 10.4324 7.13317 11.0435 7.13317 11.7769C7.13317 12.2046 7.21873 12.6355 7.38984 13.0694C7.56095 13.5033 7.8665 13.9983 8.3065 14.5544C8.7465 15.1105 9.34539 15.7644 10.1032 16.516C10.8609 17.2677 11.8265 18.1691 12.9998 19.2202Z" fill="#1C1B1F"/>
</g>
</svg>
