<svg width="24" height="24" viewBox="0 0 24 24" fill="none" xmlns="http://www.w3.org/2000/svg">
<rect x="0.5" y="0.5" width="23" height="23" rx="11.5" fill="white"/>
<rect x="0.5" y="0.5" width="23" height="23" rx="11.5" stroke="black"/>
<path fill-rule="evenodd" clip-rule="evenodd" d="M7.4482 7.75449C6.96154 8.40798 6.66667 9.30083 6.66667 10.233C6.66667 12.3226 7.98823 14.0766 9.38363 15.339C10.0745 15.964 10.767 16.4533 11.2875 16.7865C11.5474 16.9529 11.7635 17.0798 11.9138 17.1647C11.9437 17.1816 11.9711 17.1968 11.9956 17.2104C12.0208 17.1958 12.0489 17.1792 12.0798 17.1608C12.2304 17.0712 12.4469 16.9377 12.7072 16.7639C13.2285 16.416 13.9221 15.9089 14.6141 15.2715C16.0146 13.9817 17.3333 12.2279 17.3333 10.233C17.3333 9.30097 17.0385 8.40813 16.5519 7.7546C16.0668 7.10322 15.4045 6.70347 14.6563 6.70347C13.622 6.70347 12.8198 7.41426 12.2992 8.53313L12 9.17621L11.7008 8.53313C11.1802 7.41419 10.378 6.70347 9.34373 6.70347C8.5956 6.70347 7.93323 7.10315 7.4482 7.75449ZM12 17.6073C11.8554 17.9242 11.8552 17.9241 11.8552 17.9241L11.8537 17.9233L11.8499 17.9214L11.8362 17.9143C11.8245 17.9082 11.8076 17.8993 11.7858 17.8877C11.7421 17.8643 11.679 17.83 11.5992 17.7849C11.4397 17.6948 11.213 17.5617 10.9417 17.388C10.3997 17.041 9.6755 16.5296 8.9497 15.8731C7.51177 14.5722 6 12.6391 6 10.233C6 9.15127 6.34041 8.10352 6.92401 7.31985C7.5092 6.53402 8.35203 6 9.34373 6C10.5116 6 11.3997 6.69059 12 7.66505C12.6003 6.69063 13.4884 6 14.6563 6C15.6481 6 16.4909 6.53411 17.0761 7.31996C17.6596 8.1037 18 9.15145 18 10.233C18 12.5483 16.4854 14.4817 15.0525 15.8015C14.3279 16.4689 13.6048 16.9972 13.0636 17.3584C12.7927 17.5393 12.5664 17.6789 12.4072 17.7736C12.3276 17.821 12.2647 17.8572 12.2212 17.8818C12.1995 17.8941 12.1826 17.9035 12.171 17.9099L12.1575 17.9173L12.1537 17.9194L12.1526 17.92L12.1522 17.9202C12.1522 17.9202 12.152 17.9203 12 17.6073ZM12 17.6073L12.1522 17.9202L12.0046 18L11.8552 17.9241L12 17.6073Z" fill="#D87878"/>
</svg>
