<svg width="91" height="35" viewBox="0 0 91 35" fill="none" xmlns="http://www.w3.org/2000/svg">
<path d="M14.0561 12.0556C16.0213 12.0556 17.773 12.4056 19.311 13.1056C20.1056 13.4686 20.8277 13.9093 21.477 14.4365C22.4511 15.2229 22.4981 16.705 21.571 17.5476L20.2381 18.7488C19.8578 19.0945 19.3708 19.2717 18.888 19.2717C18.4608 19.2717 18.0336 19.1334 17.6832 18.8439C16.7006 18.0359 15.6112 17.634 14.4064 17.634C12.9794 17.634 11.8345 18.0963 10.9715 19.021C10.1042 19.9457 9.67268 21.1859 9.67268 22.7457C9.67268 24.3056 10.1042 25.5457 10.9715 26.4704C11.8387 27.3951 12.9837 27.8575 14.4064 27.8575C15.6112 27.8575 16.7049 27.4556 17.6832 26.6476C18.0336 26.3581 18.4608 26.2198 18.888 26.2198C19.3708 26.2198 19.8578 26.397 20.2381 26.7426L21.571 27.9439C22.5024 28.7821 22.4511 30.2642 21.477 31.055C20.8277 31.5821 20.1056 32.0272 19.311 32.3858C17.7687 33.0858 16.017 33.4358 14.0561 33.4358C11.9199 33.4358 9.9931 32.9821 8.27991 32.0791C6.56672 31.1716 5.22522 29.9056 4.25113 28.2809C3.27705 26.6562 2.79428 24.8112 2.79428 22.7457C2.79428 20.6803 3.28132 18.8352 4.25113 17.2105C5.22522 15.5859 6.56672 14.3198 8.27991 13.4124C9.99738 12.5093 11.9199 12.0556 14.0561 12.0556ZM14.0561 11.1914C11.7917 11.1914 9.71541 11.6797 7.88259 12.6476C6.03696 13.6241 4.56728 15.0068 3.5163 16.7655C2.46531 18.5198 1.93555 20.5334 1.93555 22.7457C1.93555 24.9581 2.46958 26.9717 3.5163 28.7303C4.56728 30.4846 6.03268 31.8717 7.88259 32.8482C9.71113 33.8161 11.7875 34.3044 14.0561 34.3044C16.1324 34.3044 18.0165 33.9241 19.6613 33.1766C20.5158 32.7877 21.3062 32.2994 22.0111 31.7334C22.6733 31.1976 23.0706 30.3939 23.092 29.5383C23.1133 28.6871 22.7673 27.8704 22.1393 27.3044L20.8063 26.1031C20.2765 25.6235 19.593 25.3599 18.8838 25.3599C18.2472 25.3599 17.6277 25.5803 17.1407 25.9821C16.3076 26.6649 15.4147 26.9976 14.4021 26.9976C13.2101 26.9976 12.2916 26.6303 11.5867 25.8784C10.8689 25.1136 10.5229 24.0896 10.5229 22.75C10.5229 21.4105 10.8732 20.3865 11.5867 19.6217C12.2916 18.8698 13.2144 18.5025 14.4021 18.5025C15.4147 18.5025 16.3076 18.8352 17.1407 19.5179C17.6277 19.9198 18.2472 20.1402 18.8838 20.1402C19.593 20.1402 20.2723 19.8766 20.8063 19.397L22.1393 18.1957C22.7673 17.6297 23.1133 16.813 23.092 15.9618C23.0706 15.1062 22.6733 14.3025 22.0111 13.7667C21.3062 13.1963 20.5158 12.7124 19.6613 12.3235C18.0208 11.5717 16.1324 11.1914 14.0561 11.1914Z" fill="#231F20"/>
<path d="M34.879 12.0556C36.8442 12.0556 38.5745 12.4488 40.0784 13.2396C41.578 14.0303 42.7486 15.1754 43.5859 16.6877C44.4233 18.1957 44.842 19.9933 44.842 22.076V30.9426C44.842 32.0618 43.9448 32.9692 42.8383 32.9692H40.0357C38.9291 32.9692 38.0319 32.0618 38.0319 30.9426V28.8513H31.615V30.9426C31.615 32.0618 30.7178 32.9692 29.6112 32.9692H26.924C25.8174 32.9692 24.9203 32.0618 24.9203 30.9426V22.076C24.9203 19.9933 25.3389 18.1957 26.1763 16.6877C27.0137 15.1797 28.1843 14.0303 29.6839 13.2396C31.1835 12.4488 32.918 12.0556 34.879 12.0556ZM31.615 23.6531H38.0277V21.4926C38.0277 20.2266 37.7329 19.2673 37.1476 18.6149C36.558 17.9624 35.7847 17.6383 34.8235 17.6383C33.8622 17.6383 33.0846 17.9667 32.4993 18.6149C31.9097 19.2673 31.615 20.2266 31.615 21.4883V23.6531ZM34.879 11.1914C32.7856 11.1914 30.9058 11.6235 29.2865 12.4704C27.6417 13.3346 26.3429 14.6093 25.4287 16.2599C24.5229 17.8933 24.0615 19.8463 24.0615 22.0717V30.9383C24.0615 32.5328 25.3432 33.8291 26.9197 33.8291H29.607C31.1835 33.8291 32.4651 32.5328 32.4651 30.9383V29.7112H37.1689V30.9383C37.1689 32.5328 38.4506 33.8291 40.0271 33.8291H42.8297C44.4062 33.8291 45.6879 32.5328 45.6879 30.9383V22.076C45.6879 19.8507 45.2265 17.8976 44.3208 16.2642C43.4022 14.6136 42.1034 13.3389 40.4586 12.4747C38.8565 11.6235 36.9724 11.1914 34.879 11.1914ZM32.4694 22.7889V21.4926C32.4694 20.4556 32.6916 19.6821 33.1273 19.1982C33.5503 18.7315 34.1014 18.5025 34.8192 18.5025C35.5369 18.5025 36.0923 18.7315 36.511 19.1982C36.9468 19.6821 37.1689 20.4556 37.1689 21.4926V22.7889H32.4694Z" fill="#231F20"/>
<path d="M64.1959 12.5223C65.939 12.5223 66.849 14.6136 65.6784 15.9143L60.6413 21.5186L66.7251 29.7241C67.7163 31.0593 66.7721 32.9692 65.1187 32.9692H62.2435C61.6154 32.9692 61.0216 32.671 60.6413 32.1612L56.1896 26.1896L54.6601 27.9136V30.9383C54.6601 32.0575 53.7629 32.9649 52.6564 32.9649H49.9691C48.8626 32.9649 47.9654 32.0575 47.9654 30.9383V14.5531C47.9654 13.434 48.8626 12.5266 49.9691 12.5266H52.6564C53.7629 12.5266 54.6601 13.434 54.6601 14.5531V19.9457L60.7054 13.192C61.0857 12.7686 61.624 12.5266 62.1922 12.5266H64.1959M64.1959 11.6581H62.1965C61.389 11.6581 60.6157 12.0038 60.0774 12.6087L55.5188 17.6988V14.5488C55.5188 12.9544 54.2372 11.6581 52.6607 11.6581H49.9734C48.3969 11.6581 47.1152 12.9544 47.1152 14.5488V30.9383C47.1152 32.5328 48.3969 33.8291 49.9734 33.8291H52.6607C54.2372 33.8291 55.5188 32.5328 55.5188 30.9383V28.2464L56.1383 27.5507L59.9663 32.684C60.5046 33.4056 61.3591 33.8334 62.2477 33.8334H65.123C66.2124 33.8334 67.195 33.2198 67.6821 32.2346C68.1691 31.2494 68.0666 30.0871 67.4129 29.2056L61.7521 21.5704L66.315 16.4933C67.0882 15.6334 67.2805 14.4408 66.8148 13.3778C66.3491 12.3149 65.3451 11.6581 64.1959 11.6581Z" fill="#231F20"/>
<path d="M79.4825 12.5223C81.7426 12.5223 84.0326 12.9889 86.22 13.9093C87.2111 14.3285 87.6811 15.4822 87.271 16.4846C86.9591 17.2408 86.2371 17.6988 85.4723 17.6988C85.2245 17.6988 84.9682 17.6513 84.7247 17.5476C83.0157 16.826 81.2342 16.463 79.4825 16.463C78.8075 16.463 78.1368 16.5192 77.4788 16.6272C77.1499 16.6834 74.2746 17.2062 74.3045 18.8655C74.3131 19.4056 74.7018 19.9544 75.0308 20.326C76.9192 19.492 78.7648 19.0729 80.5421 19.0729C80.5592 19.0729 80.5805 19.0729 80.5976 19.0729C82.7765 19.0815 83.8916 19.9846 84.4427 20.7365C85.0152 21.5186 85.2587 22.5254 85.1391 23.571C85.0536 24.3056 84.7845 24.9667 84.3701 25.4939C83.9129 26.0643 83.0371 26.7729 81.435 26.9068C81.2214 26.9241 81.0078 26.9328 80.7941 26.9328C79.6064 26.9328 78.3461 26.6605 76.885 26.0945C76.5219 25.9519 76.1672 25.805 75.834 25.6494C75.4153 25.455 75.0137 25.2389 74.6292 25.0056C73.7235 25.6235 73.198 26.2544 72.9972 26.9544C72.8947 27.3044 72.9032 27.663 73.0143 27.918C73.1211 28.1599 73.3518 28.4019 73.6679 28.605C74.0097 28.8254 74.4626 29.0068 75.0864 29.184C76.2142 29.4994 77.4276 29.655 78.7007 29.655C80.2772 29.655 81.9434 29.4173 83.648 28.9377C84.2504 28.7692 84.8571 28.5488 85.5022 28.2723C85.7543 28.1643 86.0149 28.1124 86.267 28.1124C87.0232 28.1124 87.7409 28.5618 88.0571 29.305C88.48 30.3075 88.0229 31.4612 87.036 31.8933C86.2285 32.2433 85.4595 32.5198 84.6862 32.7359C82.6441 33.3106 80.6275 33.5957 78.6964 33.5957C77.073 33.5957 75.5093 33.3926 74.0482 32.9865C73.0442 32.7056 72.2581 32.3729 71.5788 31.9365C70.6004 31.3099 69.8656 30.4717 69.4469 29.5038C68.9641 28.3933 68.8958 27.097 69.2589 25.8525C69.6434 24.526 70.4295 23.368 71.6472 22.3482C70.861 21.2723 70.4381 20.1099 70.4167 18.9389C70.3612 15.8322 72.8861 13.3994 76.8508 12.7383C77.7138 12.5957 78.5982 12.5223 79.4825 12.5223ZM79.4825 11.6581C78.5512 11.6581 77.6156 11.7359 76.7098 11.8871C72.3008 12.6217 69.4939 15.3957 69.558 18.9562C69.5794 20.0581 69.9083 21.1686 70.5193 22.2056C69.4982 23.2038 68.7933 24.3488 68.4301 25.6105C68.0157 27.0538 68.0969 28.5575 68.6565 29.8538C69.1436 30.9772 69.9938 31.9494 71.1174 32.6667C71.8693 33.1507 72.728 33.5136 73.8132 33.8161C75.3427 34.2439 76.9833 34.4556 78.6879 34.4556C80.7044 34.4556 82.7979 34.1575 84.9041 33.5655C85.7116 33.3408 86.5148 33.0513 87.3607 32.684C88.7791 32.0704 89.4413 30.3982 88.8346 28.9636C88.3903 27.918 87.382 27.2439 86.2584 27.2439C85.8782 27.2439 85.5065 27.3217 85.1562 27.4729C84.5452 27.7365 83.9727 27.9439 83.4088 28.1038C81.7853 28.5575 80.2003 28.7908 78.6922 28.7908C77.4917 28.7908 76.351 28.6439 75.3042 28.3501C74.7745 28.2031 74.3857 28.0476 74.1165 27.8747C73.8944 27.7322 73.8047 27.6068 73.7876 27.568C73.7705 27.5291 73.7577 27.3822 73.8089 27.1964C73.9243 26.8031 74.2105 26.4186 74.6805 26.034C74.9368 26.1723 75.1974 26.3062 75.4666 26.4315C75.8169 26.5957 76.1886 26.7556 76.5688 26.9025C78.1453 27.5118 79.4868 27.797 80.7856 27.797C81.0249 27.797 81.2641 27.7883 81.4991 27.7667C83.4045 27.6068 84.4683 26.7383 85.028 26.034C85.5449 25.3815 85.8739 24.5692 85.9807 23.6747C86.1303 22.413 85.8269 21.1859 85.1263 20.2266C84.4598 19.3149 83.1354 18.2217 80.5976 18.2087H80.5378C78.846 18.2087 77.0901 18.5673 75.3128 19.2717C75.206 19.0859 75.159 18.9433 75.159 18.8482C75.1462 18.1957 76.6201 17.6426 77.6156 17.4785C78.2265 17.3791 78.8503 17.3272 79.4783 17.3272C81.1317 17.3272 82.7808 17.6686 84.3914 18.347C84.7375 18.4896 85.0964 18.563 85.468 18.563C86.6045 18.563 87.6213 17.876 88.0571 16.8173C88.6509 15.3741 87.9716 13.7106 86.5489 13.1099C84.2547 12.1507 81.875 11.6581 79.4825 11.6581Z" fill="#231F20"/>
<path d="M85.468 15.7327C82.8534 14.6309 79.9653 14.2204 77.1584 14.6871C74.9881 15.05 72.3051 16.2858 72.3521 18.9043C72.3734 20.0969 73.0613 21.1513 73.8773 21.9636C74.6719 22.7543 75.6289 23.3895 76.6414 23.8648C76.9448 24.0074 77.2524 24.1371 77.5685 24.258C78.7477 24.7161 80.008 25.0488 81.2683 24.9451C81.8537 24.8975 82.4774 24.7247 82.8448 24.2624C83.0499 24.0031 83.1567 23.6704 83.1994 23.342C83.2592 22.8451 83.1652 22.3179 82.8705 21.9117C82.3706 21.2247 81.4307 21.0519 80.5848 21.0475C78.5341 21.0389 76.5304 21.7087 74.7146 22.6679C73.1681 23.4889 71.63 24.6296 71.1174 26.4056C70.8995 27.1617 70.908 27.9957 71.2199 28.713C71.5019 29.3654 72.0188 29.8926 72.6127 30.2729C73.2065 30.6531 73.8773 30.8951 74.5566 31.0852C77.6924 31.958 81.0462 31.7117 84.1564 30.8389C84.8742 30.6358 85.5706 30.3809 86.2584 30.0827" stroke="#231F20" stroke-width="2" stroke-miterlimit="10" stroke-linecap="round" stroke-linejoin="round"/>
<path d="M34.8794 14.6093C36.4627 14.6093 37.7461 13.3112 37.7461 11.7099C37.7461 10.1086 36.4627 8.81055 34.8794 8.81055C33.2962 8.81055 32.0127 10.1086 32.0127 11.7099C32.0127 13.3112 33.2962 14.6093 34.8794 14.6093Z" fill="#C11F33" stroke="#231F20" stroke-miterlimit="10" stroke-linecap="round" stroke-linejoin="round"/>
<path d="M34.8154 10.4914C34.8496 10.2106 34.9821 9.38526 35.6613 8.66366C36.2424 8.04576 36.9131 7.83403 37.1908 7.76489" stroke="#231F20" stroke-miterlimit="10" stroke-linecap="round" stroke-linejoin="round"/>
<path d="M59.1334 3.38773C59.4965 3.75933 59.676 4.30378 59.676 5.02538V7.9939H58.9924V5.09452C58.9924 4.56304 58.8642 4.15687 58.6122 3.876C58.3601 3.59946 58.0055 3.45687 57.5398 3.45687C57.0143 3.45687 56.5999 3.62106 56.2966 3.94946C55.9932 4.27785 55.8437 4.73156 55.8437 5.30625V7.9939H55.1601V5.09452C55.1601 4.56304 55.032 4.15687 54.7799 3.876C54.5321 3.59946 54.169 3.45687 53.699 3.45687C53.1778 3.45687 52.7676 3.62106 52.46 3.94946C52.1567 4.27785 52.0029 4.73156 52.0029 5.30625V7.9939H51.3193V2.87353H51.973V3.80687C52.1524 3.49575 52.4045 3.25378 52.7249 3.08526C53.0453 2.91674 53.4128 2.83032 53.8314 2.83032C54.2544 2.83032 54.6218 2.92106 54.9337 3.10254C55.2456 3.28403 55.4763 3.55193 55.6301 3.91057C55.8181 3.57353 56.0829 3.30995 56.4333 3.11551C56.7836 2.92538 57.1809 2.83032 57.6338 2.83032C58.2746 2.83464 58.7745 3.02045 59.1334 3.38773Z" fill="black"/>
<path d="M65.4738 2.87348H66.1574V7.99385H65.5037V6.98274C65.2987 7.32842 65.0252 7.592 64.692 7.77348C64.3545 7.95497 63.9743 8.04571 63.5513 8.04571C63.0771 8.04571 62.6456 7.93336 62.2611 7.71299C61.8766 7.49262 61.5732 7.18583 61.3553 6.7883C61.1374 6.39077 61.0264 5.94139 61.0264 5.43583C61.0264 4.93027 61.1374 4.47657 61.3553 4.08336C61.5732 3.68583 61.8766 3.37904 62.2611 3.16299C62.6456 2.94694 63.0771 2.83459 63.5513 2.83459C63.9614 2.83459 64.3331 2.92101 64.6621 3.09385C64.9911 3.26669 65.2645 3.51731 65.4738 3.85003V2.87348ZM64.5638 7.18151C64.8501 7.01731 65.0722 6.77966 65.2389 6.47719C65.4012 6.1704 65.4824 5.82472 65.4824 5.43583C65.4824 5.04694 65.4012 4.70126 65.2389 4.39447C65.0765 4.08768 64.8501 3.85435 64.5638 3.69015C64.2776 3.52595 63.9572 3.44385 63.6068 3.44385C63.248 3.44385 62.9233 3.52595 62.6413 3.69015C62.3551 3.85435 62.1329 4.092 61.9663 4.39447C61.8039 4.70126 61.7228 5.04694 61.7228 5.43583C61.7228 5.82472 61.8039 6.1704 61.9663 6.47719C62.1286 6.78398 62.3551 7.01731 62.6413 7.18151C62.9275 7.34571 63.248 7.42781 63.6068 7.42781C63.9614 7.43213 64.2776 7.34571 64.5638 7.18151Z" fill="black"/>
<path d="M72.8176 7.99386H71.9802L69.938 5.42287L68.7461 6.53336V7.99386H68.0625V0.769165H68.7461V5.66484L71.7709 2.86916H72.6168L70.4507 4.96052L72.8176 7.99386Z" fill="black"/>
<path d="M76.6837 7.25929C76.9486 7.14694 77.175 6.97842 77.363 6.75805L77.7475 7.20744C77.5211 7.47966 77.2434 7.68707 76.9101 7.82966C76.5769 7.97225 76.2052 8.04571 75.8036 8.04571C75.2824 8.04571 74.821 7.93336 74.4194 7.70867C74.0135 7.48398 73.7016 7.17287 73.4752 6.77966C73.2488 6.38213 73.1377 5.93706 73.1377 5.43583C73.1377 4.93459 73.2445 4.48953 73.4624 4.092C73.676 3.69447 73.9751 3.38768 74.351 3.16731C74.7313 2.94694 75.1585 2.83459 75.6413 2.83459C76.0899 2.83459 76.4957 2.9383 76.8589 3.14571C77.222 3.35311 77.5083 3.64262 77.7261 4.01422C77.9398 4.38583 78.0551 4.80497 78.0679 5.28027L73.911 6.09694C74.0391 6.51176 74.2699 6.84015 74.6074 7.07348C74.9449 7.31114 75.3465 7.42781 75.8164 7.42781C76.1283 7.43213 76.4188 7.37163 76.6837 7.25929ZM74.6928 3.67719C74.4151 3.84139 74.1972 4.07472 74.0392 4.36855C73.8811 4.66237 73.8042 5.00373 73.8042 5.38398C73.8042 5.48336 73.8084 5.5525 73.8127 5.60003L77.3844 4.90003C77.3075 4.47225 77.1109 4.11793 76.7991 3.84571C76.4829 3.56916 76.0984 3.43089 75.6455 3.43089C75.2867 3.42657 74.9705 3.51299 74.6928 3.67719Z" fill="black"/>
<path d="M85.9211 2.87348H86.6047V7.99385H85.951V6.98274C85.7459 7.32842 85.4725 7.592 85.1393 7.77348C84.8018 7.95497 84.4215 8.04571 83.9986 8.04571C83.5243 8.04571 83.0928 7.93336 82.7083 7.71299C82.3238 7.49262 82.0205 7.18583 81.8026 6.7883C81.5847 6.39077 81.4736 5.94139 81.4736 5.43583C81.4736 4.93027 81.5847 4.47657 81.8026 4.08336C82.0205 3.68583 82.3238 3.37904 82.7083 3.16299C83.0928 2.94694 83.5243 2.83459 83.9986 2.83459C84.4087 2.83459 84.7804 2.92101 85.1094 3.09385C85.4383 3.26669 85.7118 3.51731 85.9211 3.85003V2.87348ZM85.0111 7.18151C85.2973 7.01731 85.5195 6.77966 85.6861 6.47719C85.8485 6.1704 85.9296 5.82472 85.9296 5.43583C85.9296 5.04694 85.8485 4.70126 85.6861 4.39447C85.5238 4.08768 85.2973 3.85435 85.0111 3.69015C84.7249 3.52595 84.4044 3.44385 84.0541 3.44385C83.6952 3.44385 83.3705 3.52595 83.0886 3.69015C82.8023 3.85435 82.5802 4.092 82.4135 4.39447C82.2512 4.70126 82.17 5.04694 82.17 5.43583C82.17 5.82472 82.2512 6.1704 82.4135 6.47719C82.5759 6.78398 82.8023 7.01731 83.0886 7.18151C83.3748 7.34571 83.6952 7.42781 84.0541 7.42781C84.4087 7.43213 84.7249 7.34571 85.0111 7.18151Z" fill="black"/>
</svg>
