<svg width="193" height="72" viewBox="0 0 193 72" fill="none" xmlns="http://www.w3.org/2000/svg">
<path d="M29.8106 24.7998C33.9787 24.7998 37.6937 25.5198 40.9557 26.9598C42.6411 27.7064 44.1724 28.6131 45.5497 29.6975C47.6156 31.3153 47.7152 34.3642 45.749 36.0975L42.922 38.5686C42.1155 39.2798 41.0826 39.6442 40.0587 39.6442C39.1526 39.6442 38.2465 39.3598 37.5035 38.7642C35.4194 37.102 33.1089 36.2753 30.5536 36.2753C27.5273 36.2753 25.0989 37.2264 23.2686 39.1286C21.4292 41.0309 20.514 43.582 20.514 46.7909C20.514 49.9998 21.4292 52.5509 23.2686 54.4531C25.108 56.3553 27.5363 57.3064 30.5536 57.3064C33.1089 57.3064 35.4285 56.4797 37.5035 54.8175C38.2465 54.222 39.1526 53.9375 40.0587 53.9375C41.0826 53.9375 42.1155 54.302 42.922 55.0131L45.749 57.4842C47.7243 59.2086 47.6156 62.2575 45.5497 63.8842C44.1724 64.9686 42.6411 65.8842 40.9557 66.622C37.6847 68.062 33.9697 68.782 29.8106 68.782C25.2801 68.782 21.1936 67.8486 17.5601 65.9909C13.9267 64.1242 11.0815 61.5197 9.01557 58.1775C6.94966 54.8353 5.92576 51.0398 5.92576 46.7909C5.92576 42.542 6.95872 38.7464 9.01557 35.4042C11.0815 32.062 13.9267 29.4575 17.5601 27.5909C21.2027 25.7331 25.2801 24.7998 29.8106 24.7998ZM29.8106 23.022C25.0083 23.022 20.6046 24.0264 16.7174 26.0175C12.8031 28.0264 9.68609 30.8709 7.45707 34.4886C5.22806 38.0975 4.10449 42.2397 4.10449 46.7909C4.10449 51.342 5.23712 55.4842 7.45707 59.102C9.68609 62.7109 12.794 65.5642 16.7174 67.5731C20.5956 69.5642 24.9992 70.5686 29.8106 70.5686C34.2143 70.5686 38.2102 69.7864 41.6987 68.2486C43.5109 67.4486 45.1872 66.4442 46.6823 65.2798C48.0867 64.1775 48.9294 62.5242 48.9747 60.7642C49.02 59.0131 48.2861 57.3331 46.9541 56.1686L44.1271 53.6975C43.0035 52.7109 41.5537 52.1686 40.0496 52.1686C38.6995 52.1686 37.3857 52.622 36.3527 53.4486C34.5858 54.8531 32.692 55.5375 30.5446 55.5375C28.0166 55.5375 26.0684 54.782 24.5734 53.2353C23.0511 51.662 22.3172 49.5553 22.3172 46.7998C22.3172 44.0442 23.0602 41.9375 24.5734 40.3642C26.0684 38.8175 28.0256 38.062 30.5446 38.062C32.692 38.062 34.5858 38.7464 36.3527 40.1509C37.3857 40.9775 38.6995 41.4309 40.0496 41.4309C41.5537 41.4309 42.9944 40.8886 44.1271 39.902L46.9541 37.4309C48.2861 36.2664 49.02 34.5864 48.9747 32.8353C48.9294 31.0753 48.0867 29.422 46.6823 28.3198C45.1872 27.1464 43.5109 26.1509 41.6987 25.3509C38.2193 23.8042 34.2143 23.022 29.8106 23.022Z" fill="#231F20"/>
<path d="M73.9738 24.7998C78.1419 24.7998 81.8116 25.6086 85.0011 27.2353C88.1815 28.862 90.6642 31.2175 92.4402 34.3286C94.2161 37.4309 95.1041 41.1286 95.1041 45.4131V63.6531C95.1041 65.9553 93.2013 67.822 90.8545 67.822H84.9104C82.5636 67.822 80.6608 65.9553 80.6608 63.6531V59.3509H67.0512V63.6531C67.0512 65.9553 65.1483 67.822 62.8015 67.822H57.1021C54.7553 67.822 52.8525 65.9553 52.8525 63.6531V45.4131C52.8525 41.1286 53.7405 37.4309 55.5165 34.3286C57.2924 31.2264 59.7751 28.862 62.9556 27.2353C66.136 25.6086 69.8148 24.7998 73.9738 24.7998ZM67.0512 48.6575H80.6518V44.2131C80.6518 41.6086 80.0266 39.6353 78.7852 38.2931C77.5348 36.9509 75.8947 36.2842 73.856 36.2842C71.8173 36.2842 70.1681 36.9598 68.9268 38.2931C67.6764 39.6353 67.0512 41.6086 67.0512 44.2042V48.6575ZM73.9738 23.022C69.5339 23.022 65.547 23.9109 62.1129 25.6531C58.6244 27.4309 55.8698 30.0531 53.9308 33.4486C52.0098 36.8086 51.0312 40.8264 51.0312 45.4042V63.6442C51.0312 66.9242 53.7496 69.5909 57.0931 69.5909H62.7925C66.136 69.5909 68.8543 66.9242 68.8543 63.6442V61.1198H78.8305V63.6442C78.8305 66.9242 81.5488 69.5909 84.8923 69.5909H90.8364C94.1799 69.5909 96.8982 66.9242 96.8982 63.6442V45.4131C96.8982 40.8353 95.9196 36.8175 93.9987 33.4575C92.0505 30.062 89.296 27.4398 85.8075 25.662C82.4096 23.9109 78.4137 23.022 73.9738 23.022ZM68.8634 46.8798V44.2131C68.8634 42.0798 69.3345 40.4886 70.2588 39.4931C71.1558 38.5331 72.3247 38.062 73.8469 38.062C75.3692 38.062 76.5471 38.5331 77.4351 39.4931C78.3593 40.4886 78.8305 42.0798 78.8305 44.2131V46.8798H68.8634Z" fill="#231F20"/>
<path d="M136.151 25.7597C139.848 25.7597 141.778 30.0619 139.295 32.7375L128.612 44.2664L141.515 61.1464C143.617 63.893 141.615 67.8219 138.108 67.8219H132.01C130.678 67.8219 129.418 67.2086 128.612 66.1597L119.17 53.8753L115.927 57.4219V63.6442C115.927 65.9464 114.024 67.813 111.677 67.813H105.978C103.631 67.813 101.728 65.9464 101.728 63.6442V29.9375C101.728 27.6353 103.631 25.7686 105.978 25.7686H111.677C114.024 25.7686 115.927 27.6353 115.927 29.9375V41.0308L128.748 27.1375C129.554 26.2664 130.696 25.7686 131.901 25.7686H136.151M136.151 23.9819H131.91C130.198 23.9819 128.558 24.693 127.416 25.9375L117.748 36.4086V29.9286C117.748 26.6486 115.03 23.9819 111.686 23.9819H105.987C102.643 23.9819 99.9248 26.6486 99.9248 29.9286V63.6442C99.9248 66.9242 102.643 69.5908 105.987 69.5908H111.686C115.03 69.5908 117.748 66.9242 117.748 63.6442V58.1064L119.062 56.6753L127.18 67.2353C128.322 68.7197 130.134 69.5997 132.019 69.5997H138.117C140.428 69.5997 142.512 68.3375 143.545 66.3108C144.578 64.2842 144.36 61.893 142.974 60.0797L130.968 44.373L140.645 33.9286C142.285 32.1597 142.693 29.7064 141.705 27.5197C140.718 25.333 138.588 23.9819 136.151 23.9819Z" fill="#231F20"/>
<path d="M168.571 25.7597C173.364 25.7597 178.221 26.7197 182.86 28.613C184.962 29.4753 185.959 31.8486 185.089 33.9108C184.428 35.4664 182.896 36.4086 181.275 36.4086C180.749 36.4086 180.205 36.3108 179.689 36.0975C176.064 34.613 172.286 33.8664 168.571 33.8664C167.139 33.8664 165.717 33.9819 164.321 34.2042C163.624 34.3197 157.526 35.3953 157.589 38.8086C157.607 39.9197 158.432 41.0486 159.129 41.813C163.134 40.0975 167.049 39.2353 170.818 39.2353C170.854 39.2353 170.9 39.2353 170.936 39.2353C175.557 39.253 177.922 41.1108 179.091 42.6575C180.305 44.2664 180.821 46.3375 180.568 48.4886C180.387 49.9997 179.816 51.3597 178.937 52.4442C177.967 53.6175 176.11 55.0753 172.712 55.3508C172.259 55.3864 171.806 55.4042 171.353 55.4042C168.834 55.4042 166.161 54.8442 163.062 53.6797C162.292 53.3864 161.54 53.0842 160.833 52.7642C159.945 52.3642 159.093 51.9197 158.278 51.4397C156.357 52.7108 155.242 54.0086 154.816 55.4486C154.599 56.1686 154.617 56.9064 154.853 57.4308C155.079 57.9286 155.568 58.4264 156.239 58.8442C156.964 59.2975 157.924 59.6708 159.247 60.0353C161.639 60.6842 164.213 61.0042 166.913 61.0042C170.256 61.0042 173.79 60.5153 177.405 59.5286C178.683 59.1819 179.97 58.7286 181.338 58.1597C181.873 57.9375 182.425 57.8308 182.96 57.8308C184.564 57.8308 186.086 58.7553 186.756 60.2842C187.653 62.3464 186.684 64.7197 184.591 65.6086C182.878 66.3286 181.247 66.8975 179.607 67.3419C175.276 68.5242 170.999 69.1108 166.904 69.1108C163.461 69.1108 160.144 68.693 157.045 67.8575C154.916 67.2797 153.249 66.5953 151.808 65.6975C149.733 64.4086 148.175 62.6842 147.287 60.693C146.263 58.4086 146.118 55.7419 146.888 53.1819C147.703 50.453 149.371 48.0708 151.953 45.973C150.286 43.7597 149.389 41.3686 149.343 38.9597C149.226 32.5686 154.581 27.5642 162.989 26.2042C164.82 25.9108 166.695 25.7597 168.571 25.7597ZM168.571 23.9819C166.596 23.9819 164.611 24.1419 162.69 24.453C153.339 25.9642 147.386 31.6708 147.522 38.9953C147.567 41.2619 148.265 43.5464 149.561 45.6797C147.395 47.733 145.9 50.0886 145.13 52.6842C144.251 55.653 144.423 58.7464 145.61 61.413C146.643 63.7242 148.446 65.7242 150.829 67.1997C152.424 68.1953 154.245 68.9419 156.547 69.5642C159.791 70.4442 163.27 70.8797 166.886 70.8797C171.162 70.8797 175.602 70.2664 180.069 69.0486C181.782 68.5864 183.485 67.9908 185.28 67.2353C188.288 65.973 189.692 62.533 188.406 59.5819C187.463 57.4308 185.325 56.0442 182.942 56.0442C182.135 56.0442 181.347 56.2042 180.604 56.5153C179.308 57.0575 178.094 57.4842 176.898 57.813C173.455 58.7464 170.093 59.2264 166.895 59.2264C164.349 59.2264 161.929 58.9242 159.709 58.3197C158.586 58.0175 157.761 57.6975 157.19 57.3419C156.719 57.0486 156.529 56.7908 156.493 56.7108C156.456 56.6308 156.429 56.3286 156.538 55.9464C156.783 55.1375 157.39 54.3464 158.386 53.5553C158.93 53.8397 159.483 54.1153 160.054 54.373C160.797 54.7108 161.585 55.0397 162.391 55.3419C165.735 56.5953 168.58 57.1819 171.335 57.1819C171.842 57.1819 172.349 57.1642 172.848 57.1197C176.889 56.7908 179.145 55.0042 180.332 53.5553C181.429 52.213 182.126 50.5419 182.353 48.7019C182.67 46.1064 182.027 43.5819 180.541 41.6086C179.127 39.733 176.318 37.4842 170.936 37.4575H170.809C167.221 37.4575 163.497 38.1953 159.727 39.6442C159.501 39.2619 159.401 38.9686 159.401 38.773C159.374 37.4308 162.5 36.293 164.611 35.9553C165.907 35.7508 167.23 35.6442 168.562 35.6442C172.069 35.6442 175.566 36.3464 178.982 37.7419C179.716 38.0353 180.477 38.1864 181.265 38.1864C183.676 38.1864 185.832 36.773 186.756 34.5953C188.016 31.6264 186.575 28.2042 183.558 26.9686C178.692 24.9953 173.645 23.9819 168.571 23.9819Z" fill="#231F20"/>
<path d="M181.266 32.3644C175.721 30.0978 169.595 29.2533 163.642 30.2133C159.039 30.96 153.349 33.5022 153.449 38.8889C153.494 41.3422 154.953 43.5111 156.683 45.1822C158.369 46.8089 160.398 48.1155 162.546 49.0933C163.189 49.3867 163.842 49.6533 164.512 49.9022C167.013 50.8444 169.686 51.5289 172.359 51.3155C173.6 51.2178 174.923 50.8622 175.702 49.9111C176.137 49.3778 176.364 48.6933 176.455 48.0178C176.581 46.9955 176.382 45.9111 175.757 45.0755C174.697 43.6622 172.703 43.3067 170.909 43.2978C166.56 43.28 162.31 44.6578 158.459 46.6311C155.179 48.32 151.917 50.6667 150.83 54.32C150.368 55.8755 150.386 57.5911 151.047 59.0667C151.645 60.4089 152.742 61.4933 154.001 62.2755C155.261 63.0578 156.683 63.5555 158.124 63.9467C164.775 65.7422 171.888 65.2355 178.484 63.44C180.006 63.0222 181.483 62.4978 182.942 61.8844" stroke="#231F20" stroke-width="2" stroke-miterlimit="10" stroke-linecap="round" stroke-linejoin="round"/>
<path d="M73.9745 30.0529C77.3323 30.0529 80.0544 27.3825 80.0544 24.0885C80.0544 20.7944 77.3323 18.124 73.9745 18.124C70.6166 18.124 67.8945 20.7944 67.8945 24.0885C67.8945 27.3825 70.6166 30.0529 73.9745 30.0529Z" fill="#C11F33" stroke="#231F20" stroke-miterlimit="10" stroke-linecap="round" stroke-linejoin="round"/>
<path d="M73.8379 21.582C73.9104 21.0043 74.1913 19.3065 75.632 17.822C76.8643 16.5509 78.2869 16.1154 78.8758 15.9731" stroke="#231F20" stroke-miterlimit="10" stroke-linecap="round" stroke-linejoin="round"/>
<path d="M125.413 6.96893C126.184 7.73338 126.564 8.85338 126.564 10.3378V16.4445H125.114V10.48C125.114 9.38671 124.843 8.55115 124.308 7.97338C123.773 7.40449 123.021 7.11115 122.034 7.11115C120.919 7.11115 120.04 7.44893 119.397 8.12449C118.754 8.80004 118.436 9.73338 118.436 10.9156V16.4445H116.987V10.48C116.987 9.38671 116.715 8.55115 116.18 7.97338C115.655 7.40449 114.885 7.11115 113.888 7.11115C112.782 7.11115 111.913 7.44893 111.26 8.12449C110.617 8.80004 110.291 9.73338 110.291 10.9156V16.4445H108.841V5.91115H110.227V7.83115C110.608 7.19115 111.142 6.69338 111.822 6.34671C112.501 6.00004 113.281 5.82227 114.169 5.82227C115.066 5.82227 115.845 6.00893 116.506 6.38227C117.168 6.7556 117.657 7.30671 117.983 8.04449C118.382 7.35115 118.944 6.80893 119.687 6.40893C120.43 6.01782 121.273 5.82227 122.233 5.82227C123.592 5.83115 124.652 6.21338 125.413 6.96893Z" fill="black"/>
<path d="M138.86 5.91105H140.31V16.4444H138.924V14.3644C138.489 15.0755 137.909 15.6177 137.202 15.9911C136.486 16.3644 135.68 16.5511 134.783 16.5511C133.777 16.5511 132.862 16.3199 132.046 15.8666C131.231 15.4133 130.588 14.7822 130.125 13.9644C129.663 13.1466 129.428 12.2222 129.428 11.1822C129.428 10.1422 129.663 9.20883 130.125 8.39994C130.588 7.58217 131.231 6.95105 132.046 6.50661C132.862 6.06217 133.777 5.83105 134.783 5.83105C135.653 5.83105 136.441 6.00883 137.139 6.36439C137.836 6.71994 138.416 7.2355 138.86 7.91994V5.91105ZM136.93 14.7733C137.537 14.4355 138.009 13.9466 138.362 13.3244C138.706 12.6933 138.878 11.9822 138.878 11.1822C138.878 10.3822 138.706 9.67106 138.362 9.03994C138.018 8.40883 137.537 7.92883 136.93 7.59105C136.323 7.25328 135.644 7.08439 134.901 7.08439C134.139 7.08439 133.451 7.25328 132.853 7.59105C132.246 7.92883 131.775 8.41772 131.421 9.03994C131.077 9.67106 130.905 10.3822 130.905 11.1822C130.905 11.9822 131.077 12.6933 131.421 13.3244C131.765 13.9555 132.246 14.4355 132.853 14.7733C133.46 15.1111 134.139 15.2799 134.901 15.2799C135.653 15.2888 136.323 15.1111 136.93 14.7733Z" fill="black"/>
<path d="M154.436 16.4443H152.66L148.328 11.1554L145.8 13.4398V16.4443H144.351V1.58203H145.8V11.6531L152.216 5.90203H154.01L149.416 10.2043L154.436 16.4443Z" fill="black"/>
<path d="M162.636 14.9333C163.198 14.7022 163.678 14.3555 164.077 13.9022L164.892 14.8266C164.412 15.3866 163.823 15.8133 163.116 16.1066C162.409 16.3999 161.621 16.5511 160.769 16.5511C159.664 16.5511 158.685 16.3199 157.834 15.8577C156.973 15.3955 156.311 14.7555 155.831 13.9466C155.351 13.1288 155.115 12.2133 155.115 11.1822C155.115 10.1511 155.342 9.2355 155.804 8.41772C156.257 7.59994 156.891 6.96883 157.689 6.5155C158.495 6.06217 159.401 5.83105 160.425 5.83105C161.376 5.83105 162.237 6.04439 163.007 6.47105C163.778 6.89772 164.385 7.49328 164.847 8.25772C165.3 9.02217 165.544 9.88439 165.572 10.8622L156.755 12.5422C157.027 13.3955 157.516 14.0711 158.232 14.5511C158.948 15.0399 159.8 15.2799 160.797 15.2799C161.458 15.2888 162.074 15.1644 162.636 14.9333ZM158.413 7.56439C157.824 7.90217 157.362 8.38217 157.027 8.98661C156.692 9.59105 156.529 10.2933 156.529 11.0755C156.529 11.2799 156.538 11.4222 156.547 11.5199L164.122 10.0799C163.959 9.19994 163.542 8.47105 162.881 7.91105C162.21 7.34217 161.395 7.05772 160.434 7.05772C159.673 7.04883 159.002 7.22661 158.413 7.56439Z" fill="black"/>
<path d="M182.226 5.91105H183.676V16.4444H182.29V14.3644C181.855 15.0755 181.275 15.6177 180.568 15.9911C179.852 16.3644 179.046 16.5511 178.149 16.5511C177.143 16.5511 176.228 16.3199 175.413 15.8666C174.597 15.4133 173.954 14.7822 173.492 13.9644C173.03 13.1466 172.794 12.2222 172.794 11.1822C172.794 10.1422 173.03 9.20883 173.492 8.39994C173.954 7.58217 174.597 6.95105 175.413 6.50661C176.228 6.06217 177.143 5.83105 178.149 5.83105C179.019 5.83105 179.807 6.00883 180.505 6.36439C181.203 6.71994 181.782 7.2355 182.226 7.91994V5.91105ZM180.296 14.7733C180.904 14.4355 181.375 13.9466 181.728 13.3244C182.072 12.6933 182.245 11.9822 182.245 11.1822C182.245 10.3822 182.072 9.67106 181.728 9.03994C181.384 8.40883 180.904 7.92883 180.296 7.59105C179.689 7.25328 179.01 7.08439 178.267 7.08439C177.506 7.08439 176.817 7.25328 176.219 7.59105C175.612 7.92883 175.141 8.41772 174.787 9.03994C174.443 9.67106 174.271 10.3822 174.271 11.1822C174.271 11.9822 174.443 12.6933 174.787 13.3244C175.132 13.9555 175.612 14.4355 176.219 14.7733C176.826 15.1111 177.506 15.2799 178.267 15.2799C179.019 15.2888 179.689 15.1111 180.296 14.7733Z" fill="black"/>
</svg>
