<svg width="33" height="32" viewBox="0 0 33 32" fill="none" xmlns="http://www.w3.org/2000/svg">
<path fill-rule="evenodd" clip-rule="evenodd" d="M16.4997 17.3228C21.5643 17.3228 25.6663 13.4468 25.6663 8.66142C25.6663 3.87598 21.5643 0 16.4997 0C11.4351 0 7.33301 3.87598 7.33301 8.66142C7.33301 13.4468 11.4351 17.3228 16.4997 17.3228ZM23.833 8.66142C23.833 12.4901 20.5517 15.5905 16.4997 15.5905C12.4476 15.5905 9.16634 12.4901 9.16634 8.66142C9.16634 4.83272 12.4476 1.73228 16.4997 1.73228C20.5517 1.73228 23.833 4.83272 23.833 8.66142Z" fill="#333333"/>
<path fill-rule="evenodd" clip-rule="evenodd" d="M0 25.9843C0 21.6837 10.9931 19.0552 16.5 19.0552C22.0069 19.0552 33 21.6837 33 25.9843V31.1812H0V25.9843ZM1.83333 25.9843C1.83333 25.6631 2.03535 25.1364 2.95486 24.4356C3.85385 23.7503 5.19374 23.0974 6.81798 22.5327C10.0651 21.4039 13.9762 20.7875 16.5 20.7875C19.0238 20.7875 22.9349 21.4039 26.182 22.5327C27.8063 23.0974 29.1462 23.7503 30.0451 24.4356C30.9646 25.1364 31.1667 25.6631 31.1667 25.9843V29.4489H1.83333V25.9843Z" fill="#333333"/>
</svg>
